# xmcd
#
# Track frame offsets: 
#        150
#        12560
#        31810
#        52232
#        71942
#        93272
#        115995
#        135502
#        158022
#        178845
#        194587
#        219492
#        238255
#
# Disc length: 3497 seconds
#
# Revision: 3
# Processed by: cddbd v1.5.2PL0 Copyright (c) Steve Scherf et al.
# Submitted via: ExactAudioCopyFreeDBPlugin 1.0
#
DISCID=c10da70d
DTITLE=R. Kelly - R. [CD2]
DYEAR=1998
DGENRE=R&B
TTITLE0=The Chase
TTITLE1=V.I.P.
TTITLE2=Did You Ever Think
TTITLE3=Dollar Bill (feat. Foxy Brown)
TTITLE4=Reality
TTITLE5=2nd Kelly
TTITLE6=Ghetto Queen (feat. Crucial Conflict)
TTITLE7=Down Low Double Life
TTITLE8=Looking For Love
TTITLE9=Dancing With A Rich Man
TTITLE10=I'm Your Angel
TTITLE11=Money Makes The World Go Round (feat. NAS)
TTITLE12=I Believe I Can Fly
EXTD=YEAR: 1998
EXTT0=
EXTT1=
EXTT2=
EXTT3=
EXTT4=
EXTT5=
EXTT6=
EXTT7=
EXTT8=
EXTT9=
EXTT10=
EXTT11=
EXTT12=
PLAYORDER=
